<svg preserveAspectRatio="none" width="100%" height="100%" overflow="visible" style="display: block;" viewBox="0 0 481 481" fill="none" xmlns="http://www.w3.org/2000/svg">
<g id="Calque_1" clip-path="url(#clip0_33489_491)">
<path id="Vector" d="M72.4196 0H49.1782V49.1483H0V72.4196H49.1782V121.568H72.4196V72.4196H121.568V49.1483H72.4196V0Z" fill="var(--fill-0, #666666)"/>
<path id="Vector_2" d="M252.12 0H228.878V49.1483H179.7V72.4196H228.878V121.568H252.12V72.4196H301.268V49.1483H252.12V0Z" fill="var(--fill-0, #666666)"/>
<path id="Vector_3" d="M431.822 49.1483V0H408.581V49.1483H359.402V72.4196H408.581V121.568H431.822V72.4196H481V49.1483H431.822Z" fill="var(--fill-0, #666666)"/>
<path id="Vector_4" d="M72.4196 179.611H49.1782V228.79H0V252.031H49.1782V301.209H72.4196V252.031H121.568V228.79H72.4196V179.611Z" fill="var(--fill-0, #666666)"/>
<path id="Vector_5" d="M252.12 179.611H228.878V228.79H179.7V252.031H228.878V301.209H252.12V252.031H301.268V228.79H252.12V179.611Z" fill="var(--fill-0, #666666)"/>
<path id="Vector_6" d="M431.822 179.611H408.581V228.79H359.402V252.031H408.581V301.209H431.822V252.031H481V228.79H431.822V179.611Z" fill="var(--fill-0, #666666)"/>
<path id="Vector_7" d="M72.4196 359.253H49.1782V408.401H0V431.642H49.1782V480.82H72.4196V431.642H121.568V408.401H72.4196V359.253Z" fill="var(--fill-0, #666666)"/>
<path id="Vector_8" d="M252.12 359.252H228.878V408.401H179.7V431.642H228.878V480.82H252.12V431.642H301.268V408.401H252.12V359.252Z" fill="var(--fill-0, #666666)"/>
<path id="Vector_9" d="M431.822 359.252H408.581V408.401H359.402V431.642H408.581V480.82H431.822V431.642H481V408.401H431.822V359.252Z" fill="var(--fill-0, #666666)"/>
</g>
<defs>
<clipPath id="clip0_33489_491">
<rect width="481" height="480.82" fill="white"/>
</clipPath>
</defs>
</svg>
