<svg preserveAspectRatio="none" width="100%" height="100%" overflow="visible" style="display: block;" viewBox="0 0 80 74" fill="none" xmlns="http://www.w3.org/2000/svg">
<g id="Layer_1" clip-path="url(#clip0_33479_261)">
<path id="Vector" d="M0 52.6649C0 52.6945 0.0177862 52.7242 0.0296436 52.7538C0.0355724 52.7716 0.0355724 52.7894 0.0474298 52.8072L6.06509 63.2299C6.06509 63.2299 6.07695 63.2358 6.08287 63.2477C6.09473 63.2654 6.10659 63.2832 6.11845 63.301C6.13623 63.3247 6.15995 63.3425 6.18959 63.3603C6.20145 63.3722 6.21331 63.3899 6.23109 63.3959C6.23702 63.3959 6.24888 63.3959 6.25481 63.4018C6.31409 63.4314 6.37931 63.4552 6.45045 63.4552H30.2721L36.1652 73.6585C36.1652 73.6585 36.1771 73.6704 36.183 73.6763C36.1949 73.6941 36.2067 73.7119 36.2186 73.7296C36.2364 73.7534 36.2601 73.7711 36.2897 73.7889C36.3016 73.8008 36.3135 73.8186 36.3312 73.8245C36.3372 73.8245 36.349 73.8245 36.355 73.8304C36.4142 73.8601 36.4795 73.8838 36.5506 73.8838H72.6684C72.7395 73.8838 72.8048 73.8601 72.87 73.8304C72.8878 73.8245 72.8996 73.8127 72.9174 73.8008C72.9648 73.7711 73.0004 73.7356 73.0301 73.6881C73.036 73.6763 73.0478 73.6763 73.0538 73.6644L79.0714 63.2358C79.0714 63.2358 79.0714 63.218 79.0774 63.2121C79.0833 63.1943 79.0951 63.1765 79.1011 63.1587C79.107 63.1409 79.1129 63.1172 79.1189 63.0994C79.1189 63.0817 79.1248 63.0639 79.1248 63.0402C79.1248 63.0283 79.1248 63.0224 79.1248 63.0164C79.1248 63.0105 79.1248 62.9987 79.1248 62.9927C79.1248 62.9749 79.1248 62.9572 79.1189 62.9334C79.1189 62.9156 79.107 62.8919 79.1011 62.8741C79.0951 62.8564 79.0892 62.8386 79.0774 62.8208C79.0774 62.8149 79.0774 62.803 79.0714 62.7971L67.1606 42.1651L73.0538 31.9618C73.0538 31.9618 73.0538 31.944 73.0597 31.9381C73.0656 31.9203 73.0775 31.9025 73.0834 31.8847C73.0893 31.8669 73.0953 31.8432 73.1012 31.8254C73.1012 31.8076 73.1071 31.7898 73.1071 31.7661C73.1071 31.7543 73.1071 31.7483 73.1071 31.7424C73.1071 31.7365 73.1071 31.7246 73.1071 31.7187C73.1071 31.7009 73.1071 31.6831 73.1012 31.6594C73.1012 31.6416 73.0893 31.6179 73.0834 31.6001C73.0775 31.5823 73.0716 31.5645 73.0597 31.5468C73.0597 31.5408 73.0597 31.529 73.0538 31.523L55.0008 0.219363C55.0008 0.219363 54.9771 0.195648 54.9652 0.177862C54.9474 0.154147 54.9297 0.130432 54.9059 0.112646C54.8822 0.0948596 54.8585 0.0770734 54.8348 0.065216C54.8111 0.0533585 54.7874 0.0415011 54.7637 0.0296436C54.734 0.0177862 54.7044 0.0118575 54.6688 0.0118575C54.651 0.0118575 54.6332 0 54.6154 0H42.5742C42.5742 0 42.5564 0 42.5505 0C42.5327 0 42.5149 0 42.4912 0.00592873C42.4675 0.00592873 42.4497 0.0177862 42.4319 0.0237149C42.4141 0.0296436 42.3963 0.0355724 42.3785 0.0474298C42.3726 0.0474298 42.3608 0.0474298 42.3548 0.0533585C42.3489 0.0533585 42.343 0.065216 42.337 0.0711447C42.3193 0.0830022 42.3074 0.0948596 42.2896 0.106717C42.2718 0.118575 42.26 0.136361 42.2481 0.148218C42.2363 0.166004 42.2244 0.177862 42.2125 0.195648C42.2125 0.201577 42.2007 0.207505 42.1947 0.213434L30.2839 20.8454H18.5036C18.5036 20.8454 18.4858 20.8454 18.4798 20.8454C18.4621 20.8454 18.4443 20.8454 18.4206 20.8513C18.3968 20.8513 18.3791 20.8632 18.3613 20.8691C18.3435 20.875 18.3257 20.881 18.3079 20.8928C18.302 20.8928 18.2901 20.8928 18.2842 20.8988C18.2783 20.8988 18.2723 20.9106 18.2664 20.9165C18.2486 20.9284 18.2368 20.9403 18.219 20.9521C18.2012 20.964 18.1893 20.9818 18.1775 20.9936C18.1656 21.0114 18.1538 21.0233 18.1419 21.0411C18.1419 21.047 18.13 21.0529 18.1241 21.0588L0.0533585 52.3566C0.0533585 52.3566 0.0415011 52.3922 0.0355724 52.4099C0.0237149 52.4396 0.0118575 52.4633 0.00592873 52.4989C0.00592873 52.5285 0 52.5522 0.00592873 52.5819C0.00592873 52.6115 0.00592873 52.6352 0.00592873 52.6649H0ZM54.3605 0.889309L71.9036 31.28H60.894L43.3449 0.889309H54.3605ZM60.3782 52.1372H49.3626L60.888 32.1693H71.8977L60.3722 52.1372H60.3782ZM42.5742 1.33396L60.1232 31.7246L48.5978 51.6926L43.09 42.1532L48.9831 31.9499C48.9831 31.9499 48.9831 31.9321 48.9891 31.9262C48.995 31.9084 49.0069 31.8906 49.0128 31.8728C49.0187 31.855 49.0246 31.8313 49.0306 31.8135C49.0306 31.7958 49.0365 31.778 49.0365 31.7543C49.0365 31.7424 49.0365 31.7365 49.0365 31.7305C49.0365 31.7246 49.0365 31.7128 49.0365 31.7068C49.0365 31.689 49.0365 31.6713 49.0306 31.6475C49.0306 31.6298 49.0187 31.606 49.0128 31.5883C49.0069 31.5705 49.0009 31.5527 48.9891 31.5349C48.9891 31.529 48.9891 31.5171 48.9831 31.5112L42.9655 21.0885C42.9655 21.0885 42.9418 21.0648 42.9299 21.047C42.9121 21.0233 42.8943 20.9996 42.8706 20.9758C42.8469 20.958 42.8232 20.9403 42.7995 20.9284C42.7758 20.9165 42.752 20.8988 42.7224 20.8928C42.6928 20.881 42.6631 20.881 42.6335 20.875C42.6157 20.875 42.5979 20.8632 42.5801 20.8632H31.3096L42.5742 1.33396ZM30.5389 21.7466H42.3193L47.827 31.28H24.7761L19.2684 21.7466H30.5389ZM18.4976 22.1912L24.0054 31.7305L6.46231 62.1212L0.948596 52.5819L18.4976 22.1912ZM7.22712 62.5599L24.7702 32.1693H47.8211L42.3133 41.7086H30.5329C30.5329 41.7086 30.5152 41.7086 30.5092 41.7086C30.4914 41.7086 30.4677 41.7086 30.4499 41.7145C30.4262 41.7145 30.4084 41.7264 30.3907 41.7323C30.3729 41.7382 30.3551 41.7442 30.3373 41.756C30.3314 41.756 30.3195 41.756 30.3136 41.762C30.3077 41.762 30.3017 41.7738 30.2958 41.7797C30.278 41.7916 30.2662 41.8035 30.2484 41.8153C30.2306 41.8272 30.2187 41.845 30.2069 41.8568C30.195 41.8687 30.1831 41.8865 30.1713 41.9042C30.1713 41.9102 30.1594 41.9161 30.1535 41.922L24.1358 52.3507C24.1358 52.3507 24.124 52.3862 24.1181 52.404C24.1062 52.4337 24.0943 52.4574 24.0884 52.4929C24.0884 52.5226 24.0825 52.5463 24.0884 52.5759C24.0884 52.6056 24.0884 52.6293 24.0884 52.659C24.0884 52.6886 24.1062 52.7182 24.1181 52.7479C24.124 52.7657 24.124 52.7835 24.1358 52.8012L29.7681 62.5599H7.22712ZM72.4194 72.9886H37.3273L42.8351 63.4492H77.9272L72.4194 72.9886ZM36.5565 72.5439L25.0311 52.5819L30.5389 43.0426L42.0643 63.0046L36.5565 72.5439ZM77.9272 62.5599H42.8351L31.3096 42.5979H42.3193L48.2124 52.8012C48.2124 52.8012 48.2243 52.8131 48.2302 52.819C48.242 52.8368 48.2539 52.8546 48.2658 52.8724C48.2836 52.8961 48.3073 52.9139 48.3369 52.9317C48.3488 52.9435 48.3606 52.9613 48.3784 52.9672C48.3843 52.9672 48.3962 52.9672 48.4021 52.9732C48.4614 53.0028 48.5266 53.0265 48.5978 53.0265H60.639C60.7102 53.0265 60.7754 53.0028 60.8406 52.9732C60.8584 52.9672 60.8702 52.9554 60.888 52.9435C60.9355 52.9139 60.971 52.8783 61.0007 52.8309C61.0066 52.819 61.0185 52.819 61.0244 52.8072L66.6567 43.0485L77.9272 62.5659V62.5599Z" fill="var(--fill-0, #666666)"/>
</g>
<defs>
<clipPath id="clip0_33479_261">
<rect width="79.1426" height="73.8779" fill="white"/>
</clipPath>
</defs>
</svg>
