<svg preserveAspectRatio="none" width="100%" height="100%" overflow="visible" style="display: block;" viewBox="0 0 13 13" fill="none" xmlns="http://www.w3.org/2000/svg">
<g id="OBJECT" clip-path="url(#clip0_33479_192)">
<path id="Vector" fill-rule="evenodd" clip-rule="evenodd" d="M6.1254 2.97919C4.38832 2.97919 2.97961 4.38789 2.97961 6.12497C2.97961 7.86205 4.38832 9.26838 6.1254 9.26838C7.86248 9.26838 9.2688 7.86205 9.2688 6.12497C9.2688 4.38789 7.86248 2.97919 6.1254 2.97919ZM6.1254 8.16664C4.99749 8.16664 4.08373 7.25289 4.08373 6.12497C4.08373 4.99706 4.99749 4.0833 6.1254 4.0833C7.25331 4.0833 8.16707 4.99706 8.16707 6.12497C8.16707 7.25289 7.25331 8.16664 6.1254 8.16664Z" fill="var(--fill-0, #EF4823)"/>
<path id="Vector_2" fill-rule="evenodd" clip-rule="evenodd" d="M9.39447 2.12024C8.98756 2.12024 8.65918 2.44862 8.65918 2.85552C8.65918 3.26243 8.98994 3.59081 9.39447 3.59081C9.79899 3.59081 10.1298 3.26005 10.1298 2.85552C10.1298 2.65326 10.0465 2.46766 9.91559 2.33678C9.78233 2.2059 9.59911 2.12262 9.39685 2.12262L9.39447 2.12024Z" fill="var(--fill-0, #EF4823)"/>
<path id="Vector_3" fill-rule="evenodd" clip-rule="evenodd" d="M12.2116 3.60028C12.1807 2.94828 12.0783 2.5033 11.9284 2.11305C11.7714 1.71091 11.562 1.36825 11.2217 1.02797C10.8814 0.687694 10.5411 0.478293 10.1366 0.321241C9.74636 0.168949 9.30138 0.0666278 8.647 0.0356935C7.995 0.0071387 7.7856 0 6.12228 0C4.45897 0 4.25194 0.0071387 3.59756 0.0356935C2.94556 0.0666278 2.50058 0.168949 2.11271 0.321241C1.71057 0.478293 1.36791 0.685315 1.02763 1.02797C0.687355 1.36825 0.477953 1.71091 0.320902 2.11305C0.170989 2.5033 0.0662886 2.94828 0.0377338 3.60028C0.00917901 4.25228 0.00204032 4.46168 0.00204032 6.125C0.00204032 7.78832 0.00917901 7.99534 0.0377338 8.64972C0.0686681 9.30172 0.170989 9.7467 0.320902 10.1369C0.477953 10.5391 0.687355 10.8818 1.02763 11.222C1.36791 11.5623 1.71057 11.7741 2.11271 11.9288C2.50296 12.0787 2.94794 12.1834 3.59994 12.2119C4.25194 12.2429 4.46135 12.25 6.12466 12.25C7.78798 12.25 7.99738 12.2429 8.64938 12.2119C9.30138 12.1834 9.74636 12.0787 10.1366 11.9288C10.5388 11.7717 10.8814 11.5623 11.2217 11.222C11.562 10.8818 11.7714 10.5391 11.9284 10.1369C12.0783 9.7467 12.183 9.30172 12.2116 8.64972C12.2401 7.99772 12.2473 7.78832 12.2473 6.125C12.2473 4.46168 12.2401 4.25228 12.2116 3.60028ZM11.1099 8.59737C11.0813 9.19464 10.9837 9.51826 10.9004 9.7348C10.7886 10.0203 10.6554 10.225 10.4412 10.4392C10.227 10.6533 10.0248 10.7866 9.73684 10.896C9.5203 10.9817 9.19668 11.0793 8.59941 11.1078C7.95455 11.1364 7.75942 11.1435 6.12466 11.1435C4.4899 11.1435 4.29478 11.1364 3.64991 11.1078C3.05264 11.0793 2.72902 10.9793 2.51248 10.896C2.22693 10.7842 2.02229 10.6533 1.80813 10.4392C1.59397 10.225 1.46309 10.0203 1.35125 9.7348C1.26797 9.51826 1.16803 9.19702 1.14185 8.59975C1.11092 7.95489 1.10616 7.75976 1.10616 6.125C1.10616 4.49024 1.11092 4.29511 1.14185 3.65025C1.16803 3.05298 1.26797 2.72936 1.35125 2.51282C1.46309 2.22727 1.59397 2.02263 1.80813 1.80847C2.02467 1.59431 2.22693 1.46105 2.51248 1.34921C2.72902 1.26593 3.05264 1.16599 3.64991 1.13981C4.21625 1.11364 4.43279 1.1065 5.57498 1.10412C5.73679 1.10412 5.92002 1.1065 6.12466 1.1065C7.75942 1.1065 7.95455 1.11126 8.59941 1.13981C9.19668 1.16837 9.5203 1.26831 9.73684 1.35159C10.0224 1.46105 10.227 1.59431 10.4412 1.80847C10.6554 2.02263 10.7886 2.22727 10.9004 2.51282C10.9837 2.72936 11.0837 3.0506 11.1099 3.64787C11.1384 4.29511 11.1455 4.48786 11.1455 6.12262C11.1455 7.75738 11.1384 7.95013 11.1099 8.59737Z" fill="var(--fill-0, #EF4823)"/>
</g>
<defs>
<clipPath id="clip0_33479_192">
<rect width="12.25" height="12.25" fill="white"/>
</clipPath>
</defs>
</svg>
