<svg preserveAspectRatio="none" width="100%" height="100%" overflow="visible" style="display: block;" viewBox="0 0 24 24" fill="none" xmlns="http://www.w3.org/2000/svg">
<g id="Group">
<path id="Vector" d="M24 12C24 18.617 18.6164 24 12 24C5.38361 24 0 18.617 0 12C0 5.38302 5.38302 0 12 0C18.617 0 24 5.38302 24 12Z" fill="var(--fill-0, #F9FAFB)"/>
<path id="Vector_2" d="M12 4.34868C9.01404 4.34868 6.87686 6.79317 6.87686 9.45775C6.87686 10.3071 7.09403 11.1787 7.56993 12.0006L12.0006 19.6519L16.4312 12.0006C18.4004 8.5996 15.9395 4.34868 12.0006 4.34868H12ZM12 11.5838C10.7034 11.5838 9.65266 10.536 9.65266 9.24292C9.65266 7.94985 10.7034 6.90204 12 6.90204C13.2966 6.90204 14.3473 7.94985 14.3473 9.24292C14.3473 10.536 13.2966 11.5838 12 11.5838Z" fill="var(--fill-0, #EF4823)"/>
</g>
</svg>
