<svg preserveAspectRatio="none" width="100%" height="100%" overflow="visible" style="display: block;" viewBox="0 0 16 22" fill="none" xmlns="http://www.w3.org/2000/svg">
<path id="Vector" d="M15.6175 15.2576C15.6175 16.0733 15.3535 16.8769 14.8257 17.6685C14.3219 18.4362 13.6742 19.1319 12.8825 19.7557C12.1149 20.3554 11.2873 20.8472 10.3996 21.231C9.51197 21.5909 8.69639 21.7709 7.95267 21.7709C6.68124 21.7709 5.5417 21.459 4.53405 20.8352C3.5505 20.1874 2.72279 19.3719 2.05108 18.3883C1.37936 17.4046 0.863634 16.3251 0.503747 15.1496C0.167965 13.9501 0 12.7866 0 11.6592C0 10.4596 0.167965 9.17619 0.503747 7.80866C0.839682 6.44127 1.34343 5.18182 2.01515 4.0303C2.71082 2.87879 3.57446 1.91919 4.60606 1.15152C5.66162 0.383838 6.90909 0 8.34848 0C9.16406 0 9.94387 0.14394 10.6874 0.431896C11.4312 0.69567 12.0789 1.07951 12.6307 1.58341C13.1824 2.08716 13.6263 2.68687 13.962 3.38254C14.298 4.07836 14.4659 4.85801 14.4659 5.72165C14.4659 6.84906 14.226 7.90462 13.7462 8.88832C13.2664 9.87186 12.6307 10.7235 11.839 11.4431C11.0473 12.1629 10.1358 12.7507 9.10418 13.2065C8.07258 13.6382 7.01702 13.8782 5.93752 13.9261C6.03348 14.6218 6.30938 15.1257 6.76508 15.4375C7.24487 15.7493 7.80865 15.9053 8.45642 15.9053C8.93621 15.9053 9.40404 15.7854 9.85988 15.5455C10.3156 15.3056 10.7595 15.0417 11.1913 14.7538C11.6231 14.442 12.0428 14.1661 12.4508 13.9261C12.8825 13.6863 13.3144 13.5662 13.7462 13.5662C14.226 13.5662 14.6579 13.7222 15.0417 14.0341C15.4255 14.346 15.6175 14.7538 15.6175 15.2576ZM9.78788 6.44127C9.78788 6.12944 9.70389 5.80563 9.53593 5.4697C9.36811 5.13392 9.10418 4.96595 8.74429 4.96595C8.21659 4.96595 7.77272 5.10981 7.41284 5.39769C7.05295 5.66162 6.7531 6.00953 6.51328 6.44127C6.2733 6.84906 6.08138 7.29293 5.93752 7.77273C5.81761 8.25253 5.7456 8.6964 5.72165 9.10419C6.05743 9.03218 6.45324 8.93622 6.90909 8.81631C7.38889 8.6964 7.83276 8.5404 8.24055 8.34848C8.67229 8.13261 9.03217 7.86869 9.32005 7.55686C9.63188 7.24503 9.78788 6.87316 9.78788 6.44127Z" fill="var(--fill-0, #F9FAFB)"/>
</svg>
