<svg preserveAspectRatio="none" width="100%" height="100%" overflow="visible" style="display: block;" viewBox="0 0 12 10" fill="none" xmlns="http://www.w3.org/2000/svg">
<g id="Layer_1" clip-path="url(#clip0_33479_280)">
<path id="Vector" d="M3.4467 5.14909L0.084792 9.23418C-0.147675 9.51659 0.141432 9.96844 0.427411 9.76929L3.00782 7.97568L6.99416 5.20474C7.18284 5.07336 7.18284 4.74535 6.99416 4.61398L3.00817 1.84303L0.427758 0.049009C0.141432 -0.149723 -0.147675 0.301712 0.084792 0.584539L3.4467 4.66921C3.55615 4.80225 3.55615 5.01646 3.4467 5.14909Z" fill="var(--fill-0, #F9FAFB)"/>
<path id="Vector_2" d="M8.31077 5.14903L4.94886 9.2337C4.7164 9.51611 5.0055 9.96796 5.29148 9.76881L7.8719 7.97521L11.8582 5.20426C12.0469 5.07289 12.0469 4.74488 11.8582 4.6135L7.8719 1.84256L5.29183 0.0489507C5.00585 -0.149781 4.7164 0.301654 4.94921 0.584062L8.31111 4.66873C8.42057 4.80178 8.42057 5.01599 8.31111 5.14861L8.31077 5.14903Z" fill="var(--fill-0, #F9FAFB)"/>
</g>
<defs>
<clipPath id="clip0_33479_280">
<rect width="12" height="9.81818" fill="white"/>
</clipPath>
</defs>
</svg>
