<svg preserveAspectRatio="none" width="100%" height="100%" overflow="visible" style="display: block;" viewBox="0 0 14 12" fill="none" xmlns="http://www.w3.org/2000/svg">
<g id="Layer_1" clip-path="url(#clip0_33479_294)">
<path id="Vector" d="M4.02115 6.00727L0.098924 10.7732C-0.172287 11.1027 0.165004 11.6298 0.498646 11.3975L3.50913 9.30497L8.15985 6.07219C8.37998 5.91893 8.37998 5.53624 8.15985 5.38298L3.50953 2.15021L0.499051 0.0571772C0.165004 -0.174676 -0.172287 0.351997 0.098924 0.681962L4.02115 5.44741C4.14885 5.60263 4.14885 5.85254 4.02115 6.00727Z" fill="var(--fill-0, #EF4823)"/>
<path id="Vector_2" d="M9.6959 6.00721L5.77367 10.7727C5.50246 11.1021 5.83975 11.6293 6.1734 11.3969L9.18388 9.30441L13.8346 6.07164C14.0547 5.91837 14.0547 5.53569 13.8346 5.38242L9.18388 2.14965L6.1738 0.0571092C5.84016 -0.174744 5.50246 0.351929 5.77408 0.681406L9.6963 5.44685C9.824 5.60207 9.824 5.85199 9.6963 6.00672L9.6959 6.00721Z" fill="var(--fill-0, #EF4823)"/>
</g>
<defs>
<clipPath id="clip0_33479_294">
<rect width="14" height="11.4545" fill="white"/>
</clipPath>
</defs>
</svg>
