<svg preserveAspectRatio="none" width="100%" height="100%" overflow="visible" style="display: block;" viewBox="0 0 195 166" fill="none" xmlns="http://www.w3.org/2000/svg">
<path id="Vector" d="M114.364 121.926C100.465 131.731 85.4996 139.962 69.7227 146.334C61.9778 149.461 54.0519 152.151 46.0012 154.379C38.2875 156.519 30.1993 158.766 22.1798 159.247C14.4537 159.708 5.97856 157.58 3.12649 149.498C0.636389 142.434 2.93927 134.283 5.82254 127.699C12.675 112.059 23.3656 98.3608 34.8113 85.8291C57.734 60.7346 84.4324 39.0976 113.702 21.8229C128.249 13.2417 143.958 5.1286 160.889 2.75083C167.455 1.82719 174.894 2.0893 180.804 5.41568C188.73 9.87165 189.678 18.7212 187.082 26.7594C184.455 34.8913 179.481 42.2742 174.344 49.0143C169.096 55.8917 163.417 62.4696 157.688 68.9476C146.298 81.835 134.272 94.1545 121.665 105.85C108.94 117.651 95.6847 129.047 81.599 139.201C74.8215 144.081 67.8005 148.637 60.455 152.625C53.1532 156.594 45.2086 160.638 37.083 162.573C32.6582 163.621 28.0213 163.266 25.1754 159.34C22.8102 156.07 22.1299 151.733 21.8616 147.801C21.2562 138.995 23.2408 130.239 26.4486 122.076C32.6957 106.156 43.2115 91.8204 54.5449 79.1577C65.5164 66.9006 77.8046 55.7981 90.5547 45.4321C103.286 35.0785 116.872 25.5487 131.726 18.4716C146.073 11.6378 162.562 6.64513 178.626 7.52509C182.37 7.73104 186.52 8.5049 189.235 11.3133C192.374 14.5585 192.562 19.52 192.212 23.7576C191.557 31.7646 188.174 39.2474 183.718 45.8377C174.507 59.4428 161.108 70.3393 148.551 80.7116C135.139 91.7892 121.06 102.055 106.425 111.467C99.3044 116.047 92.0587 120.441 84.7195 124.66C83.4651 125.377 84.5884 127.306 85.8553 126.601C102.475 117.37 118.414 106.961 133.617 95.5524C148.17 84.6247 162.649 72.9667 175.262 59.811C185.74 48.8833 196.643 33.7741 194.446 17.6977C192.093 0.441715 168.478 4.76039 156.62 7.31914C122.47 14.6834 93.1634 38.28 68.2811 61.6708C55.169 73.9965 43.0368 87.5454 33.5382 102.885C24.4702 117.52 16.4694 135.55 20.0392 153.156C21.3498 159.634 25.3065 165.463 32.471 165.643C36.6836 165.75 40.8088 164.139 44.6719 162.648C48.6536 161.113 52.5603 159.384 56.386 157.487C72.6309 149.43 87.2345 138.471 101.139 126.925C115.824 114.737 129.835 101.731 143.09 88.001C156.028 74.6018 169.102 60.5974 179.712 45.2511C187.319 34.2422 197.96 14.4088 183.188 4.39218C170.768 -4.02674 152.595 1.39032 139.982 6.27692C123.013 12.8485 107.187 22.7091 92.2522 33.0065C77.0931 43.46 62.7579 55.1179 49.4461 67.8368C36.3591 80.3497 23.74 93.8174 13.7484 108.976C9.12396 115.991 4.74287 123.543 2.07803 131.55C-0.0501051 137.953 -1.1797 145.548 1.86584 151.864C8.98042 166.605 29.6938 160.595 41.7699 157.48C59.2568 152.968 76.1757 146.297 92.0712 137.722C100.066 133.409 107.779 128.592 115.194 123.343C116.042 122.744 115.231 121.333 114.37 121.939L114.364 121.926Z" fill="var(--fill-0, #F9F9F9)"/>
</svg>
