<svg preserveAspectRatio="none" width="100%" height="100%" overflow="visible" style="display: block;" viewBox="0 0 87 16" fill="none" xmlns="http://www.w3.org/2000/svg">
<g id="67d270fb698a3e550219c6f8_star.svg" clip-path="url(#clip0_33468_674)">
<path id="Vector" d="M14.9308 6.06665C14.8478 5.81316 14.6969 5.58771 14.4946 5.41525C14.2923 5.24279 14.0466 5.13005 13.7846 5.08951L10.3384 4.55862L8.81013 1.33482C8.69342 1.08518 8.50859 0.874136 8.27722 0.726315C8.04585 0.578494 7.77749 0.5 7.50348 0.5C7.22946 0.5 6.9611 0.578494 6.72973 0.726315C6.49836 0.874136 6.31353 1.08518 6.19682 1.33482L4.66858 4.55862L1.22238 5.08951C0.960109 5.13055 0.714149 5.24358 0.511507 5.41618C0.308864 5.58877 0.157377 5.81426 0.0736823 6.06787C-0.0100126 6.32149 -0.0226783 6.59342 0.0370761 6.85381C0.0968304 7.1142 0.226694 7.35297 0.412404 7.54391L2.9493 10.1599L2.35328 13.8069C2.30794 14.0766 2.33992 14.3538 2.44549 14.6059C2.55105 14.858 2.72582 15.0746 2.9493 15.2303C3.19305 15.4037 3.48375 15.4976 3.78219 15.4995C4.02578 15.4983 4.26506 15.4348 4.47754 15.3149L7.5264 13.6453L10.5294 15.3149C10.7692 15.45 11.0422 15.5134 11.3165 15.4977C11.5908 15.482 11.8549 15.3878 12.0779 15.2263C12.301 15.0647 12.4736 14.8425 12.5756 14.5856C12.6775 14.3287 12.7046 14.0479 12.6537 13.7761L12.0577 10.1291L14.5945 7.51313C14.776 7.32563 14.9032 7.09185 14.9624 6.83696C15.0216 6.58207 15.0107 6.31574 14.9308 6.06665Z" fill="var(--fill-0, #FF9D00)"/>
<path id="Vector_2" d="M32.9308 6.19554C32.8478 5.95895 32.6969 5.74853 32.4946 5.58757C32.2923 5.42661 32.0466 5.32138 31.7846 5.28354L28.3384 4.78804L26.8101 1.77916C26.6934 1.54617 26.5086 1.34919 26.2772 1.21123C26.0459 1.07326 25.7775 1 25.5035 1C25.2295 1 24.9611 1.07326 24.7297 1.21123C24.4984 1.34919 24.3135 1.54617 24.1968 1.77916L22.6686 4.78804L19.2224 5.28354C18.9601 5.32185 18.7141 5.42734 18.5115 5.58843C18.3089 5.74952 18.1574 5.95997 18.0737 6.19668C17.99 6.43339 17.9773 6.68719 18.0371 6.93022C18.0968 7.17325 18.2267 7.39611 18.4124 7.57431L20.9493 10.0159L20.3533 13.4197C20.3079 13.6715 20.3399 13.9302 20.4455 14.1655C20.5511 14.4008 20.7258 14.603 20.9493 14.7482C21.1931 14.9101 21.4837 14.9978 21.7822 14.9996C22.0258 14.9985 22.2651 14.9391 22.4775 14.8272L25.5264 13.2689L28.5294 14.8272C28.7692 14.9533 29.0422 15.0125 29.3165 14.9978C29.5908 14.9832 29.8549 14.8953 30.0779 14.7445C30.301 14.5937 30.4736 14.3863 30.5756 14.1466C30.6775 13.9068 30.7046 13.6447 30.6537 13.391L30.0577 9.98716L32.5945 7.54559C32.776 7.37059 32.9032 7.15239 32.9624 6.9145C33.0216 6.6766 33.0107 6.42802 32.9308 6.19554Z" fill="var(--fill-0, #FF9D00)"/>
<path id="Vector_3" d="M50.9308 6.19554C50.8478 5.95895 50.6969 5.74853 50.4946 5.58757C50.2923 5.42661 50.0466 5.32138 49.7846 5.28354L46.3384 4.78804L44.8101 1.77916C44.6934 1.54617 44.5086 1.34919 44.2772 1.21123C44.0459 1.07326 43.7775 1 43.5035 1C43.2295 1 42.9611 1.07326 42.7297 1.21123C42.4984 1.34919 42.3135 1.54617 42.1968 1.77916L40.6686 4.78804L37.2224 5.28354C36.9601 5.32185 36.7141 5.42734 36.5115 5.58843C36.3089 5.74952 36.1574 5.95997 36.0737 6.19668C35.99 6.43339 35.9773 6.68719 36.0371 6.93022C36.0968 7.17325 36.2267 7.39611 36.4124 7.57431L38.9493 10.0159L38.3533 13.4197C38.3079 13.6715 38.3399 13.9302 38.4455 14.1655C38.5511 14.4008 38.7258 14.603 38.9493 14.7482C39.1931 14.9101 39.4837 14.9978 39.7822 14.9996C40.0258 14.9985 40.2651 14.9391 40.4775 14.8272L43.5264 13.2689L46.5294 14.8272C46.7692 14.9533 47.0422 15.0125 47.3165 14.9978C47.5908 14.9832 47.8549 14.8953 48.0779 14.7445C48.301 14.5937 48.4736 14.3863 48.5756 14.1466C48.6775 13.9068 48.7046 13.6447 48.6537 13.391L48.0577 9.98716L50.5945 7.54559C50.776 7.37059 50.9032 7.15239 50.9624 6.9145C51.0216 6.6766 51.0107 6.42802 50.9308 6.19554Z" fill="var(--fill-0, #FF9D00)"/>
<path id="Vector_4" d="M68.9308 6.19554C68.8478 5.95895 68.6969 5.74853 68.4946 5.58757C68.2923 5.42661 68.0466 5.32138 67.7846 5.28354L64.3384 4.78804L62.8101 1.77916C62.6934 1.54617 62.5086 1.34919 62.2772 1.21123C62.0459 1.07326 61.7775 1 61.5035 1C61.2295 1 60.9611 1.07326 60.7297 1.21123C60.4984 1.34919 60.3135 1.54617 60.1968 1.77916L58.6686 4.78804L55.2224 5.28354C54.9601 5.32185 54.7141 5.42734 54.5115 5.58843C54.3089 5.74952 54.1574 5.95997 54.0737 6.19668C53.99 6.43339 53.9773 6.68719 54.0371 6.93022C54.0968 7.17325 54.2267 7.39611 54.4124 7.57431L56.9493 10.0159L56.3533 13.4197C56.3079 13.6715 56.3399 13.9302 56.4455 14.1655C56.5511 14.4008 56.7258 14.603 56.9493 14.7482C57.1931 14.9101 57.4837 14.9978 57.7822 14.9996C58.0258 14.9985 58.2651 14.9391 58.4775 14.8272L61.5264 13.2689L64.5294 14.8272C64.7692 14.9533 65.0422 15.0125 65.3165 14.9978C65.5908 14.9832 65.8549 14.8953 66.0779 14.7445C66.301 14.5937 66.4736 14.3863 66.5756 14.1466C66.6775 13.9068 66.7046 13.6447 66.6537 13.391L66.0577 9.98716L68.5945 7.54559C68.776 7.37059 68.9032 7.15239 68.9624 6.9145C69.0216 6.6766 69.0107 6.42802 68.9308 6.19554Z" fill="var(--fill-0, #FF9D00)"/>
<path id="Vector_5" d="M86.9308 6.19554C86.8478 5.95895 86.6969 5.74853 86.4946 5.58757C86.2923 5.42661 86.0466 5.32138 85.7846 5.28354L82.3384 4.78804L80.8101 1.77916C80.6934 1.54617 80.5086 1.34919 80.2772 1.21123C80.0459 1.07326 79.7775 1 79.5035 1C79.2295 1 78.9611 1.07326 78.7297 1.21123C78.4984 1.34919 78.3135 1.54617 78.1968 1.77916L76.6686 4.78804L73.2224 5.28354C72.9601 5.32185 72.7141 5.42734 72.5115 5.58843C72.3089 5.74952 72.1574 5.95997 72.0737 6.19668C71.99 6.43339 71.9773 6.68719 72.0371 6.93022C72.0968 7.17325 72.2267 7.39611 72.4124 7.57431L74.9493 10.0159L74.3533 13.4197C74.3079 13.6715 74.3399 13.9302 74.4455 14.1655C74.5511 14.4008 74.7258 14.603 74.9493 14.7482C75.1931 14.9101 75.4837 14.9978 75.7822 14.9996C76.0258 14.9985 76.2651 14.9391 76.4775 14.8272L79.5264 13.2689L82.5294 14.8272C82.7692 14.9533 83.0422 15.0125 83.3165 14.9978C83.5908 14.9832 83.8549 14.8953 84.0779 14.7445C84.301 14.5937 84.4736 14.3863 84.5756 14.1466C84.6775 13.9068 84.7046 13.6447 84.6537 13.391L84.0577 9.98716L86.5945 7.54559C86.776 7.37059 86.9032 7.15239 86.9624 6.9145C87.0216 6.6766 87.0107 6.42802 86.9308 6.19554Z" fill="var(--fill-0, #FF9D00)"/>
</g>
<defs>
<clipPath id="clip0_33468_674">
<rect width="87" height="16" fill="white"/>
</clipPath>
</defs>
</svg>
