<svg preserveAspectRatio="none" width="100%" height="100%" overflow="visible" style="display: block;" viewBox="0 0 12 10" fill="none" xmlns="http://www.w3.org/2000/svg">
<g id="Layer_1" clip-path="url(#clip0_33479_276)">
<path id="Vector" d="M3.44666 5.14879L0.0847554 9.23388C-0.147711 9.51629 0.141395 9.96814 0.427374 9.76899L3.00779 7.97539L6.99412 5.20444C7.1828 5.07307 7.1828 4.74505 6.99412 4.61368L3.00814 1.84274L0.427722 0.0487123C0.141395 -0.150019 -0.147711 0.301415 0.0847554 0.584242L3.44666 4.66891C3.55612 4.80195 3.55612 5.01617 3.44666 5.14879Z" fill="var(--fill-0, #F9FAFB)"/>
<path id="Vector_2" d="M8.31056 5.14943L4.94866 9.2341C4.71619 9.51651 5.0053 9.96836 5.29128 9.76921L7.87169 7.97561L11.858 5.20466C12.0467 5.07329 12.0467 4.74527 11.858 4.6139L7.87169 1.84296L5.29163 0.0493498C5.00565 -0.149382 4.71619 0.302053 4.94901 0.584461L8.31091 4.66913C8.42037 4.80217 8.42037 5.01639 8.31091 5.14901L8.31056 5.14943Z" fill="var(--fill-0, #F9FAFB)"/>
</g>
<defs>
<clipPath id="clip0_33479_276">
<rect width="12" height="9.81818" fill="white"/>
</clipPath>
</defs>
</svg>
