<svg preserveAspectRatio="none" width="100%" height="100%" overflow="visible" style="display: block;" viewBox="0 0 74 64" fill="none" xmlns="http://www.w3.org/2000/svg">
<g id="Layer_1" clip-path="url(#clip0_33479_270)">
<path id="Vector" d="M0 56.5061C0 56.5334 0.0166305 56.5608 0.0277174 56.5882C0.0332609 56.6046 0.0332609 56.6211 0.0443479 56.6375L3.89153 63.2257C3.89153 63.2257 3.90261 63.2312 3.90816 63.2421C3.91924 63.2586 3.93033 63.275 3.94142 63.2914C3.95805 63.3133 3.98022 63.3297 4.00794 63.3462C4.02457 63.3571 4.03011 63.3736 4.04674 63.379C4.05229 63.379 4.06338 63.379 4.06892 63.3845C4.12435 63.4119 4.18533 63.4338 4.25185 63.4338H69.726C69.7925 63.4338 69.8535 63.4119 69.9144 63.3845C69.9311 63.379 69.9422 63.3681 69.9588 63.3571C70.0031 63.3297 70.0364 63.2969 70.0641 63.2531C70.0697 63.2421 70.0807 63.2421 70.0863 63.2312L73.939 56.643C73.939 56.643 73.939 56.6265 73.9446 56.6211C73.9501 56.6046 73.9612 56.5882 73.9667 56.5718C73.9723 56.5553 73.9778 56.5334 73.9834 56.517C73.9834 56.5006 73.9889 56.4841 73.9889 56.4622C73.9889 56.4513 73.9889 56.4458 73.9889 56.4403C73.9889 56.4349 73.9889 56.4239 73.9889 56.4184C73.9889 56.402 73.9889 56.3856 73.9834 56.3637C73.9834 56.3472 73.9723 56.3253 73.9667 56.3089C73.9612 56.2925 73.9556 56.276 73.9446 56.2596C73.9446 56.2541 73.9446 56.2432 73.939 56.2377L41.2047 0.202378C41.2047 0.202378 41.1826 0.180472 41.1715 0.164042C41.1548 0.142136 41.1382 0.12023 41.116 0.0983245C41.0939 0.0818951 41.0717 0.0654656 41.0495 0.0545127C41.0273 0.0435597 41.0052 0.0271303 40.9774 0.0216538C40.9497 0.0107008 40.922 0.0107008 40.8943 0.00522437C40.8777 0.00522437 40.861 -0.00572859 40.8444 -0.00572859H33.1445C33.1445 -0.00572859 33.1279 -0.00572859 33.1168 -0.00572859C33.1002 -0.00572859 33.0835 -0.00572859 33.0613 -0.000252107C33.0447 -0.000252107 33.0225 0.0107008 33.0059 0.0161773C32.9893 0.0216538 32.9727 0.0271303 32.956 0.0380832C32.9505 0.0380832 32.9394 0.0380832 32.9338 0.0435597C32.9283 0.0435597 32.9228 0.0545127 32.9172 0.0599892C32.9006 0.0709421 32.8895 0.0818951 32.8729 0.092848C32.8562 0.103801 32.8452 0.12023 32.8341 0.131183C32.823 0.147613 32.8119 0.158566 32.8008 0.174995C32.8008 0.180472 32.7897 0.185948 32.7842 0.191425L0.0498914 56.2213C0.0498914 56.2213 0.0388044 56.2541 0.0332609 56.2706C0.0221739 56.2979 0.011087 56.3253 0.00554349 56.3527C0.00554349 56.3801 0.00554349 56.402 0.00554349 56.4294C0.00554349 56.4568 0.00554349 56.4787 0.00554349 56.5061H0ZM40.606 0.82122L72.8636 56.0186H16.5307L19.9011 50.2519H62.0316C62.0981 50.2519 62.1591 50.23 62.2201 50.2026C62.2256 50.2026 62.2312 50.2026 62.2423 50.2026C62.2589 50.1917 62.2644 50.1807 62.2811 50.1698C62.3032 50.1533 62.3254 50.1369 62.3476 50.115C62.3642 50.0931 62.3808 50.0712 62.3919 50.0493C62.403 50.0274 62.4197 50.0055 62.4252 49.9781C62.4363 49.9507 62.4363 49.9233 62.4418 49.8959C62.4418 49.8795 62.4529 49.8631 62.4529 49.8467C62.4529 49.8357 62.4529 49.8302 62.4529 49.8248C62.4529 49.7974 62.4418 49.77 62.4363 49.7426C62.4307 49.7152 62.4197 49.6878 62.4086 49.6659C62.4086 49.6605 62.4086 49.6495 62.403 49.644L33.8652 0.82122H40.606ZM69.4931 62.6068H4.97805L33.1445 14.4084L36.5149 20.1751L15.4497 56.2213C15.4497 56.2213 15.4497 56.2377 15.4442 56.2432C15.4331 56.2651 15.4275 56.2925 15.4164 56.3199C15.4109 56.3472 15.3998 56.3746 15.3998 56.402C15.3998 56.413 15.3998 56.4184 15.3998 56.4239C15.3998 56.4403 15.4053 56.4568 15.4109 56.4732C15.4109 56.5006 15.4164 56.528 15.4275 56.5553C15.4386 56.5827 15.4497 56.6046 15.4608 56.6265C15.4719 56.6484 15.4885 56.6703 15.5051 56.6923C15.5218 56.7142 15.5439 56.7306 15.5717 56.747C15.5883 56.758 15.5938 56.7744 15.6105 56.7799C15.616 56.7799 15.6215 56.7799 15.6326 56.7799C15.6881 56.8073 15.749 56.8292 15.8211 56.8292H72.8747L69.5042 62.5959L69.4931 62.6068ZM53.6111 49.4304H20.3779L36.9917 20.9966L53.6055 49.4304H53.6111ZM33.1445 1.23196L61.311 49.4304H54.5701L33.5048 13.3843C33.5048 13.3843 33.4937 13.3733 33.4882 13.3678C33.4716 13.3459 33.4549 13.324 33.4328 13.3076C33.4106 13.2857 33.394 13.2693 33.3718 13.2528C33.3662 13.2528 33.3607 13.2419 33.3552 13.2364C33.3385 13.2254 33.3219 13.2254 33.3053 13.22C33.2775 13.209 33.2554 13.1981 33.2221 13.1926C33.1944 13.1926 33.1722 13.1926 33.1445 13.1926C33.1168 13.1926 33.0946 13.1926 33.0669 13.1926C33.0392 13.1926 33.0115 13.209 32.9837 13.22C32.9671 13.2254 32.9505 13.2254 32.9338 13.2364C32.9283 13.2364 32.9228 13.2473 32.9172 13.2528C32.895 13.2693 32.8729 13.2857 32.8562 13.3076C32.8396 13.3295 32.8174 13.3459 32.8008 13.3678C32.8008 13.3733 32.7897 13.3788 32.7842 13.3843L4.2574 62.1961L0.886958 56.4294L33.1445 1.23196Z" fill="var(--fill-0, #666666)"/>
</g>
<defs>
<clipPath id="clip0_33479_270">
<rect width="74" height="63.4286" fill="white"/>
</clipPath>
</defs>
</svg>
