<svg preserveAspectRatio="none" width="100%" height="100%" overflow="visible" style="display: block;" viewBox="0 0 73 74" fill="none" xmlns="http://www.w3.org/2000/svg">
<g id="Layer_1" clip-path="url(#clip0_33479_255)">
<path id="Vector" d="M31.2724 72.7539C32.3442 72.9234 33.4324 73.0273 34.5315 73.082C34.619 73.082 34.7064 73.0875 34.7994 73.093C34.9963 73.0984 35.1876 73.1148 35.3845 73.1203H35.39C35.39 73.1203 35.4173 73.1148 35.4337 73.1094C35.7891 73.1203 36.1391 73.1367 36.5 73.1367C56.6283 73.1367 73 56.7322 73 36.5711C73 16.41 56.6283 -2.18956e-06 36.5 -2.18956e-06C36.4398 -2.18956e-06 36.3852 -2.18956e-06 36.325 -2.18956e-06C36.1993 -2.18956e-06 36.0735 -0.0109385 35.9422 -0.0109385C34.2854 -0.0109385 32.6176 0.136702 30.9772 0.41011C30.9334 0.415578 30.8951 0.426515 30.8514 0.431983C30.6873 0.459324 30.5178 0.481196 30.3538 0.514005C30.3428 0.514005 30.3319 0.524942 30.3264 0.524942C13.1345 3.48322 0 18.5152 0 36.5711C0 54.627 13.6157 70.2058 31.2724 72.7539ZM72.1798 36.5711C72.1798 56.2783 56.1745 72.3165 36.5 72.3165C35.9532 72.3165 35.4118 72.3001 34.8705 72.2727C34.7611 72.2727 34.6518 72.2618 34.5424 72.2563C33.9792 72.2235 33.4214 72.1852 32.8637 72.1306C32.8582 72.1306 32.8527 72.1306 32.8473 72.1306C32.5082 72.0978 32.1747 72.0431 31.8357 71.9993C17.7497 69.9706 6.81333 57.7001 6.81333 43.1165C6.81333 30.6655 14.6437 20.0135 25.6238 15.8303C18.1871 19.7565 13.1072 27.576 13.1072 36.5656C13.1072 49.4869 23.6006 59.9967 36.5 59.9967H36.5055C36.5055 59.9967 36.5109 59.9967 36.5164 59.9967C37.8397 59.9967 39.1357 59.8764 40.3988 59.6631C46.8075 58.7117 52.7131 55.7151 57.3228 51.0125C62.8511 45.3694 65.8969 37.9053 65.8969 29.9983C65.8969 18.4441 59.3405 8.40457 49.7658 3.39026C62.8894 8.67798 72.1798 21.55 72.1798 36.5601V36.5711ZM38.5396 14.0532C38.5888 14.0532 38.6381 14.0586 38.6873 14.0641C38.8841 14.0805 39.081 14.1133 39.2778 14.1352C50.4165 15.5132 59.0671 25.0442 59.0671 36.5711C59.0671 48.098 51.0344 56.9291 40.4808 58.821C39.1739 59.0288 37.8452 59.1546 36.4891 59.1819C24.0435 59.1819 13.9219 49.0385 13.9219 36.5711C13.9219 24.1037 24.049 13.9602 36.4945 13.9602C36.8445 13.9602 37.1945 13.9712 37.5444 13.9876C37.878 14.004 38.2061 14.0258 38.5396 14.0586V14.0532ZM31.0045 1.25221C31.0373 1.25221 31.0646 1.24127 31.0975 1.2358C32.8035 0.973331 34.5533 0.836627 36.325 0.831159C52.21 1.03895 65.0766 14.0422 65.0766 30.0038C65.0766 40.4863 59.428 49.7658 51.0234 54.9168C56.4205 50.6188 59.8928 43.9969 59.8928 36.5656C59.8928 25.4379 52.1116 16.1037 41.7112 13.7251C41.6619 13.6813 41.6018 13.6485 41.5307 13.6376C40.8198 13.5009 40.1035 13.4025 39.3817 13.3204C39.1794 13.2931 38.9716 13.2658 38.7693 13.2494C38.7091 13.2494 38.6545 13.2439 38.5943 13.2384C38.2607 13.2111 37.9217 13.1837 37.5827 13.1673C37.0359 13.1345 36.4891 13.1181 35.9422 13.1181C19.4284 13.1181 5.99311 26.5753 5.99311 43.1219C5.99311 51.0289 9.03888 58.493 14.5672 64.1361C15.5897 65.1805 16.6724 66.1374 17.8153 67.0069C7.62809 60.7021 0.820225 49.4213 0.820225 36.5711C0.820225 18.7339 13.9329 3.90427 31.0045 1.25221Z" fill="var(--fill-0, #EF4823)"/>
</g>
<defs>
<clipPath id="clip0_33479_255">
<rect width="73" height="73.1312" fill="white"/>
</clipPath>
</defs>
</svg>
