<svg preserveAspectRatio="none" width="100%" height="100%" overflow="visible" style="display: block;" viewBox="0 0 17 31" fill="none" xmlns="http://www.w3.org/2000/svg">
<path id="Vector" d="M16.4452 9.57201C16.4452 10.6276 16.3253 11.7911 16.0853 13.0625C15.8694 14.31 15.4856 15.4736 14.9338 16.5531C14.4061 17.6326 13.6983 18.5322 12.8107 19.252C11.9471 19.9716 10.8556 20.3315 9.53608 20.3315C9.20014 20.3315 8.85239 20.3075 8.49251 20.2595C8.13262 20.2115 7.78486 20.1276 7.44892 20.0077C7.13709 19.8877 6.84921 19.7317 6.58529 19.5398C6.32136 19.324 6.11746 19.0481 5.9736 18.7121L5.64964 23.8939C5.62569 24.4457 5.60173 25.1055 5.57778 25.8732C5.57778 26.6408 5.48182 27.3726 5.2899 28.0683C5.12193 28.7639 4.82208 29.3517 4.39019 29.8315C3.9824 30.3352 3.38269 30.5872 2.59091 30.5872C2.13522 30.5872 1.75138 30.3473 1.43939 29.8675C1.12756 29.4117 0.87576 28.824 0.683841 28.1042C0.515873 27.3846 0.383838 26.5808 0.287879 25.6932C0.191919 24.8056 0.132035 23.954 0.108083 23.1382C0.0839783 22.3227 0.0720048 21.5789 0.0720048 20.9072C0.0720048 20.2355 0.0720048 19.7437 0.0720048 19.4319C0.0720048 17.8245 0.0600301 16.2291 0.0360786 14.6459C0.012127 13.0385 0 11.4312 0 9.82396C0 9.53608 0 9.09221 0 8.4925C0 7.86869 0.0241018 7.19697 0.0720048 6.47735C0.120061 5.75758 0.191919 5.014 0.287879 4.24633C0.407943 3.47865 0.57576 2.78283 0.791784 2.15917C1.00765 1.5114 1.28356 0.995677 1.61934 0.611839C1.95528 0.203896 2.36306 0 2.84286 0C3.15469 0 3.4306 0.0959596 3.67057 0.287879C3.93435 0.455846 4.15037 0.683693 4.31818 0.971572C4.5101 1.2355 4.6661 1.52338 4.78601 1.83521C4.90607 2.14719 5.00203 2.43507 5.07389 2.69884C5.81761 1.85931 6.66927 1.22352 7.62887 0.791782C8.61242 0.359887 9.65599 0.144017 10.7596 0.144017C11.9111 0.144017 12.8466 0.467822 13.5664 1.11559C14.3101 1.76335 14.8859 2.56696 15.2937 3.52655C15.7254 4.48615 16.0252 5.51775 16.1932 6.62121C16.3612 7.70087 16.4452 8.68442 16.4452 9.57201ZM11.2993 9.28413C11.2993 8.92424 11.2634 8.56451 11.1913 8.20462C11.1434 7.82078 11.0354 7.47287 10.8675 7.16104C10.7235 6.82511 10.5077 6.56133 10.2198 6.36941C9.9319 6.15339 9.57201 6.04545 9.14027 6.04545C8.56451 6.04545 7.95267 6.23737 7.30505 6.62121C6.68124 6.9811 6.21343 7.40086 5.9016 7.88066C5.78169 8.07258 5.70967 8.38457 5.68572 8.81631C5.66162 9.2482 5.64964 9.57201 5.64964 9.78788C5.64964 9.95585 5.64964 10.1837 5.64964 10.4716C5.67375 10.7355 5.6977 11.0114 5.72165 11.2993C5.7456 11.5872 5.7697 11.8631 5.79365 12.127C5.84156 12.3908 5.90159 12.5948 5.9736 12.7387C6.04546 12.9545 6.20144 13.1584 6.44142 13.3504C6.68124 13.5183 6.94517 13.6743 7.23305 13.8182C7.52093 13.9622 7.80881 14.0701 8.09668 14.1421C8.40851 14.214 8.67245 14.2501 8.88832 14.2501C9.39207 14.2501 9.80001 14.0582 10.1118 13.6743C10.4237 13.2905 10.6636 12.8346 10.8315 12.3069C11.0234 11.7791 11.1434 11.2392 11.1913 10.6876C11.2634 10.1118 11.2993 9.64402 11.2993 9.28413Z" fill="var(--fill-0, #F9FAFB)"/>
</svg>
