<svg preserveAspectRatio="none" width="100%" height="100%" overflow="visible" style="display: block;" viewBox="0 0 16 23" fill="none" xmlns="http://www.w3.org/2000/svg">
<path id="Vector" d="M10.3636 22.2026C9.95585 22.2026 9.63204 22.0107 9.39206 21.6268C9.15209 21.2671 8.9723 20.8472 8.85223 20.3674C8.73232 19.8876 8.64834 19.4078 8.60044 18.928C8.57633 18.4242 8.56435 18.0404 8.56435 17.7765C8.56435 17.0569 8.60043 16.3371 8.67244 15.6175C8.76825 14.8977 8.86436 14.1781 8.96017 13.4583C9.08023 12.7387 9.17619 12.0189 9.2482 11.2993C9.34401 10.5795 9.39206 9.85989 9.39206 9.14011C9.39206 8.85223 9.38009 8.5404 9.35614 8.20447C9.33203 7.86869 9.27215 7.55686 9.17619 7.26898C9.10419 6.957 8.9723 6.7052 8.78038 6.51328C8.58846 6.32136 8.33651 6.2254 8.02468 6.2254C7.80866 6.2254 7.56883 6.40534 7.3049 6.76508C7.04097 7.10101 6.78918 7.49683 6.5492 7.95267C6.33333 8.38441 6.14141 8.82828 5.97344 9.28413C5.82958 9.71587 5.75758 10.0398 5.75758 10.2557C5.75758 10.7834 5.75758 11.3232 5.75758 11.875C5.78153 12.4027 5.79365 12.9426 5.79365 13.4944V15.5814C5.76955 16.0133 5.73362 16.457 5.68557 16.9128C5.63766 17.3687 5.56566 17.8126 5.4697 18.2443C5.39769 18.6762 5.28975 19.096 5.14589 19.5037C5.00188 19.8876 4.80996 20.2355 4.57013 20.5473C4.35411 20.8352 4.09033 21.0752 3.77835 21.2671C3.46652 21.459 3.09466 21.555 2.66291 21.555C2.18312 21.555 1.7873 21.399 1.47532 21.0872C1.16349 20.7752 0.911692 20.3794 0.719773 19.8996C0.527854 19.3958 0.383838 18.844 0.287879 18.2443C0.215871 17.6206 0.155988 17.0208 0.107931 16.445C0.0839796 15.8453 0.0720048 15.3055 0.0720048 14.8257C0.0959564 14.3219 0.107931 13.9261 0.107931 13.6382V11.9469C0.107931 11.0354 0.0839816 10.1358 0.0360786 9.24805C0.0119735 8.36046 0 7.47287 0 6.58529C0 6.10549 0 5.49365 0 4.74992C0.0239515 4.00635 0.119911 3.28658 0.287879 2.59091C0.455846 1.87114 0.73175 1.25945 1.11559 0.755702C1.49943 0.251953 2.06321 0 2.80678 0C3.14271 0 3.44257 0.107936 3.7065 0.323807C3.97027 0.539831 4.19827 0.803605 4.39019 1.11559C4.60606 1.42742 4.77403 1.7632 4.89394 2.12309C5.03796 2.48297 5.14589 2.79481 5.2179 3.05873C5.45772 2.7228 5.73362 2.39899 6.04545 2.08716C6.38139 1.77518 6.75325 1.49943 7.16104 1.25945C7.56883 1.01963 8.02468 0.827709 8.52843 0.683693C9.03218 0.53983 9.60793 0.467824 10.2557 0.467824C11.4792 0.467824 12.4268 0.767677 13.0986 1.36739C13.7942 1.94314 14.298 2.67489 14.6098 3.56248C14.9457 4.42612 15.1496 5.36176 15.2216 6.36926C15.2935 7.37691 15.3296 8.28845 15.3296 9.10419C15.3296 9.51198 15.2935 10.1237 15.2216 10.9394C15.1496 11.731 15.0297 12.6186 14.8618 13.6023C14.7177 14.5619 14.5138 15.5574 14.2501 16.589C13.9861 17.5965 13.6743 18.5202 13.3144 19.3599C12.9545 20.1994 12.5228 20.8833 12.0189 21.411C11.5391 21.9388 10.9875 22.2026 10.3636 22.2026Z" fill="var(--fill-0, #F9FAFB)"/>
</svg>
