<svg preserveAspectRatio="none" width="100%" height="100%" overflow="visible" style="display: block;" viewBox="0 0 17 29" fill="none" xmlns="http://www.w3.org/2000/svg">
<path id="Vector" d="M16.0133 3.85037C16.0133 3.97033 15.8934 4.31818 15.6535 4.89394C15.4375 5.4697 15.1377 6.1774 14.7538 7.01712C14.37 7.85665 13.9263 8.80427 13.4224 9.85983C12.9426 10.8914 12.4388 11.959 11.9111 13.0626C11.3833 14.1421 10.8675 15.2096 10.3636 16.2652C9.85989 17.3207 9.39206 18.2803 8.96032 19.144C8.55253 19.9836 8.20462 20.7033 7.91674 21.303C7.62886 21.8787 7.44891 22.2386 7.37691 22.3826C8.12063 22.1427 8.87633 21.9507 9.64401 21.8069C10.4356 21.6389 11.2273 21.5549 12.0191 21.5549C12.4029 21.5549 12.8107 21.5908 13.2424 21.6629C13.6743 21.7109 14.0701 21.8308 14.43 22.0227C14.8139 22.1907 15.1257 22.4305 15.3657 22.7424C15.6294 23.0302 15.7615 23.4262 15.7615 23.93C15.7615 24.4577 15.5815 24.9375 15.2216 25.3694C14.8618 25.7771 14.3939 26.137 13.8182 26.4489C13.2665 26.7607 12.6307 27.0246 11.9111 27.2405C11.1913 27.4565 10.4717 27.6363 9.75195 27.7803C9.03233 27.9242 8.34849 28.0201 7.70087 28.0682C7.05311 28.1402 6.51327 28.1761 6.08153 28.1761C5.52973 28.1761 4.91805 28.1522 4.24633 28.1041C3.59856 28.0562 2.97474 27.9242 2.37504 27.7083C1.77533 27.4924 1.27158 27.1806 0.863636 26.7727C0.479798 26.3409 0.287879 25.7412 0.287879 24.9735C0.287879 24.4457 0.431888 23.738 0.719767 22.8505C1.0316 21.9388 1.39149 21.0151 1.79928 20.0796C2.20707 19.12 2.62698 18.2083 3.05872 17.3447C3.51457 16.4571 3.87446 15.7614 4.13839 15.2575C4.95397 13.7463 5.76971 12.2468 6.58529 10.7595C7.42497 9.24814 8.24054 7.72476 9.03233 6.18939C8.19264 6.66921 7.23305 7.11308 6.15354 7.52087C5.07388 7.90471 4.05441 8.09663 3.09481 8.09663C2.75888 8.09663 2.39899 8.04857 2.01515 7.95261C1.65542 7.85665 1.31948 7.72476 1.00765 7.55679C0.719767 7.36488 0.479798 7.12505 0.287879 6.83718C0.0959596 6.5493 0 6.21339 0 5.82955C0 5.20582 0.204046 4.63006 0.611836 4.10228C1.01963 3.5745 1.54748 3.0947 2.19509 2.66289C2.8668 2.23107 3.61053 1.84723 4.42627 1.51137C5.2658 1.17551 6.10548 0.899625 6.94517 0.683708C7.78485 0.467807 8.57648 0.29987 9.3202 0.179928C10.0879 0.0599707 10.7355 0 11.2634 0C12.6547 0 13.7942 0.275888 14.6818 0.827648C15.5696 1.37942 16.0133 2.387 16.0133 3.85037Z" fill="var(--fill-0, #F9FAFB)"/>
</svg>
