<svg preserveAspectRatio="none" width="100%" height="100%" overflow="visible" style="display: block;" viewBox="0 0 22 18" fill="none" xmlns="http://www.w3.org/2000/svg">
<g id="Layer_1" clip-path="url(#clip0_33479_314)">
<path id="Vector" d="M6.20405 9.26836L0.152626 16.6215C-0.265814 17.1299 0.254577 17.9432 0.76934 17.5847L5.41408 14.3562L12.5895 9.36852C12.9291 9.13205 12.9291 8.54163 12.5895 8.30516L5.41471 3.31746L0.769965 0.0882162C0.254577 -0.269501 -0.265814 0.543082 0.152626 1.05217L6.20405 8.40457C6.40108 8.64405 6.40108 9.02963 6.20405 9.26836Z" fill="var(--fill-0, #F9FAFB)"/>
<path id="Vector_2" d="M14.9589 9.26837L8.90751 16.6208C8.48907 17.1291 9.00946 17.9424 9.52422 17.584L14.169 14.3555L21.3444 9.36778C21.684 9.13131 21.684 8.54088 21.3444 8.30441L14.169 3.31671L9.52485 0.08822C9.01009 -0.269497 8.48907 0.543085 8.90813 1.05142L14.9596 8.40382C15.1566 8.6433 15.1566 9.02889 14.9596 9.26761L14.9589 9.26837Z" fill="var(--fill-0, #F9FAFB)"/>
</g>
<defs>
<clipPath id="clip0_33479_314">
<rect width="21.6" height="17.6727" fill="white"/>
</clipPath>
</defs>
</svg>
