<svg preserveAspectRatio="none" width="100%" height="100%" overflow="visible" style="display: block;" viewBox="0 0 24 24" fill="none" xmlns="http://www.w3.org/2000/svg">
<g id="Group">
<path id="Vector" d="M24 12C24 18.617 18.6164 24 12 24C5.38361 24 0 18.617 0 12C0 5.38302 5.38302 0 12 0C18.617 0 24 5.38302 24 12Z" fill="var(--fill-0, #F9FAFB)"/>
<g id="Group_2">
<g id="Group_3">
<path id="Vector_2" d="M8.83992 11.9649L4.61943 16.1801V7.83276L8.83992 11.9649Z" fill="var(--fill-0, #EF4823)"/>
<path id="Vector_3" d="M8.83992 11.9649L4.61943 16.1801V7.83276L8.83992 11.9649Z" fill="var(--fill-0, #EF4823)"/>
</g>
<path id="Vector_4" d="M5.26068 16.7713L9.46244 12.5748L12.0047 15.0638L14.6113 12.5122L18.8757 16.7713H5.26068Z" fill="var(--fill-0, #EF4823)"/>
<path id="Vector_5" d="M15.2343 11.9028L19.381 7.84272V16.0443L15.2343 11.9028Z" fill="var(--fill-0, #EF4823)"/>
<g id="Group_4">
<path id="Vector_6" d="M18.761 7.22866L12.0047 13.8445L5.24896 7.22866H18.761Z" fill="var(--fill-0, #EF4823)"/>
<path id="Vector_7" d="M18.761 7.22866L12.0047 13.8445L5.24896 7.22866H18.761Z" fill="var(--fill-0, #EF4823)"/>
</g>
</g>
</g>
</svg>
