<svg preserveAspectRatio="none" width="100%" height="100%" overflow="visible" style="display: block;" viewBox="0 0 21 21" fill="none" xmlns="http://www.w3.org/2000/svg">
<g id="OBJECT" clip-path="url(#clip0_33479_307)">
<path id="Vector" fill-rule="evenodd" clip-rule="evenodd" d="M10.2088 4.96582C7.31366 4.96582 4.96582 7.31366 4.96582 10.2088C4.96582 13.1039 7.31366 15.4478 10.2088 15.4478C13.1039 15.4478 15.4478 13.1039 15.4478 10.2088C15.4478 7.31366 13.1039 4.96582 10.2088 4.96582ZM10.2088 13.6116C8.32894 13.6116 6.80602 12.0887 6.80602 10.2088C6.80602 8.32894 8.32894 6.80602 10.2088 6.80602C12.0887 6.80602 13.6116 8.32894 13.6116 10.2088C13.6116 12.0887 12.0887 13.6116 10.2088 13.6116Z" fill="var(--fill-0, #F9FAFB)"/>
<path id="Vector_2" fill-rule="evenodd" clip-rule="evenodd" d="M15.6574 3.53418C14.9792 3.53418 14.4319 4.08148 14.4319 4.75966C14.4319 5.43783 14.9832 5.98513 15.6574 5.98513C16.3316 5.98513 16.8828 5.43387 16.8828 4.75966C16.8828 4.42255 16.744 4.11321 16.5259 3.89508C16.3038 3.67695 15.9984 3.53815 15.6613 3.53815L15.6574 3.53418Z" fill="var(--fill-0, #F9FAFB)"/>
<path id="Vector_3" fill-rule="evenodd" clip-rule="evenodd" d="M20.3526 6.00047C20.3011 4.9138 20.1306 4.17217 19.8807 3.52176C19.6189 2.85151 19.2699 2.28042 18.7028 1.71329C18.1357 1.14616 17.5686 0.797154 16.8943 0.535402C16.2439 0.281582 15.5023 0.111046 14.4117 0.0594891C13.325 0.0118978 12.976 0 10.2038 0C7.43161 0 7.08657 0.0118978 5.99594 0.0594891C4.90927 0.111046 4.16764 0.281582 3.52119 0.535402C2.85095 0.797154 2.27985 1.14219 1.71272 1.71329C1.14559 2.28042 0.796589 2.85151 0.534837 3.52176C0.284982 4.17217 0.110481 4.9138 0.0628897 6.00047C0.0152984 7.08714 0.00340053 7.43614 0.00340053 10.2083C0.00340053 12.9805 0.0152984 13.3256 0.0628897 14.4162C0.114447 15.5029 0.284982 16.2445 0.534837 16.8949C0.796589 17.5652 1.14559 18.1362 1.71272 18.7034C2.27985 19.2705 2.85095 19.6235 3.52119 19.8813C4.17161 20.1311 4.91324 20.3056 5.9999 20.3532C7.08657 20.4048 7.43558 20.4167 10.2078 20.4167C12.98 20.4167 13.329 20.4048 14.4156 20.3532C15.5023 20.3056 16.2439 20.1311 16.8943 19.8813C17.5646 19.6195 18.1357 19.2705 18.7028 18.7034C19.2699 18.1362 19.6189 17.5652 19.8807 16.8949C20.1306 16.2445 20.3051 15.5029 20.3526 14.4162C20.4002 13.3295 20.4121 12.9805 20.4121 10.2083C20.4121 7.43614 20.4002 7.08714 20.3526 6.00047ZM18.5164 14.3289C18.4688 15.3244 18.3062 15.8638 18.1674 16.2247C17.981 16.7006 17.7589 17.0416 17.402 17.3986C17.0451 17.7555 16.7079 17.9776 16.2281 18.16C15.8672 18.3028 15.3278 18.4654 14.3323 18.513C13.2576 18.5606 12.9324 18.5725 10.2078 18.5725C7.48317 18.5725 7.15796 18.5606 6.08319 18.513C5.08774 18.4654 4.54837 18.2989 4.18747 18.16C3.71156 17.9736 3.37048 17.7555 3.01355 17.3986C2.65662 17.0416 2.43849 16.7006 2.25209 16.2247C2.11328 15.8638 1.94671 15.3284 1.90309 14.3329C1.85153 13.2581 1.8436 12.9329 1.8436 10.2083C1.8436 7.48373 1.85153 7.15852 1.90309 6.08375C1.94671 5.0883 2.11328 4.54893 2.25209 4.18803C2.43849 3.71212 2.65662 3.37105 3.01355 3.01412C3.37445 2.65718 3.71156 2.43509 4.18747 2.24869C4.54837 2.10988 5.08774 1.94331 6.08319 1.89969C7.02708 1.85606 7.38798 1.84416 9.29164 1.8402C9.56132 1.8402 9.8667 1.84416 10.2078 1.84416C12.9324 1.84416 13.2576 1.85209 14.3323 1.89969C15.3278 1.94728 15.8672 2.11385 16.2281 2.25265C16.704 2.43509 17.0451 2.65718 17.402 3.01412C17.7589 3.37105 17.981 3.71212 18.1674 4.18803C18.3062 4.54893 18.4728 5.08434 18.5164 6.07979C18.564 7.15852 18.5759 7.47977 18.5759 10.2044C18.5759 12.929 18.564 13.2502 18.5164 14.3289Z" fill="var(--fill-0, #F9FAFB)"/>
</g>
<defs>
<clipPath id="clip0_33479_307">
<rect width="20.4167" height="20.4167" fill="white"/>
</clipPath>
</defs>
</svg>
