<svg preserveAspectRatio="none" width="100%" height="100%" overflow="visible" style="display: block;" viewBox="0 0 17 22" fill="none" xmlns="http://www.w3.org/2000/svg">
<path id="Vector" d="M16.1932 15.8333C16.1932 16.2651 16.1691 16.8289 16.1212 17.5247C16.0973 18.2203 16.0013 18.904 15.8333 19.5758C15.6654 20.2235 15.4014 20.7873 15.0417 21.2671C14.6818 21.7469 14.1781 21.9867 13.5303 21.9867C12.6427 21.9867 11.959 21.6988 11.4792 21.1231C10.9994 20.5473 10.7714 19.8277 10.7954 18.9641C10.0277 19.6358 9.15208 20.1635 8.16854 20.5473C7.20894 20.9312 6.2254 21.1231 5.21774 21.1231C4.52208 21.1231 3.86233 20.9551 3.23867 20.6193C2.61486 20.2834 2.06305 19.8517 1.58325 19.3238C1.10345 18.7961 0.719615 18.2084 0.431736 17.5606C0.143857 16.8889 0 16.2291 0 15.5814C0 14.4299 0.347915 13.4224 1.04358 12.5587C1.7632 11.6951 2.63882 10.9633 3.67042 10.3636C4.70202 9.73982 5.7935 9.24805 6.94502 8.88832C8.12064 8.52843 9.16406 8.28845 10.0758 8.16854C10.0758 8.04863 10.0758 7.9407 10.0758 7.84474C10.0997 7.74878 10.1117 7.64084 10.1117 7.52078C10.1117 6.7772 9.90779 6.17734 9.5 5.72165C9.09221 5.2658 8.51645 5.0378 7.77273 5.0378C7.17302 5.0378 6.65714 5.14589 6.2254 5.36176C5.79351 5.55368 5.38571 5.78153 5.00187 6.04545C4.61803 6.28528 4.23419 6.51328 3.85036 6.72915C3.46652 6.92107 3.03478 7.01703 2.55498 7.01703C2.02713 7.01703 1.57128 6.84906 1.18744 6.51328C0.827708 6.17734 0.647762 5.7456 0.647762 5.21775C0.647762 4.42612 0.875616 3.7065 1.33146 3.05873C1.81126 2.41097 2.39899 1.87114 3.09466 1.43939C3.81444 0.983547 4.58211 0.63579 5.39769 0.395814C6.23738 0.131887 7.00505 0 7.70072 0C8.34849 0 8.99624 0.0839848 9.64386 0.251953C10.2916 0.395815 10.9035 0.63579 11.4792 0.971572C12.055 1.2834 12.5707 1.67922 13.0265 2.15901C13.5063 2.61486 13.8902 3.15469 14.1781 3.77835C14.6098 4.66609 14.9577 5.61356 15.2216 6.62121C15.4854 7.60476 15.6893 8.62439 15.8333 9.67994C15.9772 10.7115 16.0732 11.755 16.1212 12.8105C16.1691 13.8421 16.1932 14.8498 16.1932 15.8333ZM10.4356 14.6818L10.3277 12.2348C10.2797 12.2348 10.2317 12.2348 10.1837 12.2348C10.1358 12.2108 10.0877 12.1988 10.0398 12.1988C9.72785 12.1988 9.33203 12.2828 8.85224 12.4508C8.39639 12.5947 7.95267 12.8105 7.52077 13.0984C7.08903 13.3623 6.71717 13.6622 6.40534 13.9981C6.11746 14.3339 5.97345 14.6818 5.97345 15.0417C5.97345 15.3775 6.09336 15.6055 6.33333 15.7254C6.57316 15.8453 6.84906 15.9053 7.16104 15.9053C7.68874 15.9053 8.25253 15.7733 8.85224 15.5095C9.45195 15.2216 9.97979 14.9457 10.4356 14.6818Z" fill="var(--fill-0, #F9FAFB)"/>
</svg>
