<svg preserveAspectRatio="none" width="100%" height="100%" overflow="visible" style="display: block;" viewBox="0 0 191 203" fill="none" xmlns="http://www.w3.org/2000/svg">
<g id="Layer_1" clip-path="url(#clip0_33489_508)">
<path id="Vector" opacity="0.3" d="M148.17 106.11V96.1301C172.44 91.7901 190.76 72.1201 190.76 48.5101C190.76 21.7201 167.16 5.6447e-05 138.05 5.6447e-05C119.99 5.6447e-05 104.05 8.36006 94.55 21.1001C85.21 8.36006 69.55 5.6447e-05 51.8 5.6447e-05C23.19 5.6447e-05 -3.81658e-05 21.7201 -3.81658e-05 48.5101C-3.81658e-05 73.0701 19.49 93.3701 44.78 96.5801V105.65C19.49 108.87 -3.81658e-05 129.16 -3.81658e-05 153.72C-3.81658e-05 180.51 23.19 202.23 51.8 202.23C69.55 202.23 85.21 193.87 94.55 181.13C104.05 193.87 119.99 202.23 138.05 202.23C167.16 202.23 190.76 180.51 190.76 153.72C190.76 130.11 172.44 110.45 148.17 106.1V106.11Z" fill="var(--fill-0, #231F20)"/>
</g>
<defs>
<clipPath id="clip0_33489_508">
<rect width="190.76" height="202.24" fill="white"/>
</clipPath>
</defs>
</svg>
