<svg preserveAspectRatio="none" width="100%" height="100%" overflow="visible" style="display: block;" viewBox="0 0 12 10" fill="none" xmlns="http://www.w3.org/2000/svg">
<g id="Layer_1" clip-path="url(#clip0_33479_188)">
<path id="Vector" d="M3.44666 5.14879L0.0847554 9.23388C-0.147711 9.51629 0.141395 9.96814 0.427374 9.76899L3.00779 7.97539L6.99412 5.20444C7.1828 5.07307 7.1828 4.74505 6.99412 4.61368L3.00814 1.84274L0.427722 0.0487123C0.141395 -0.150019 -0.147711 0.301415 0.0847554 0.584242L3.44666 4.66891C3.55612 4.80195 3.55612 5.01617 3.44666 5.14879Z" fill="var(--fill-0, #EF4823)"/>
<path id="Vector_2" d="M8.31077 5.14903L4.94886 9.2337C4.7164 9.51611 5.0055 9.96796 5.29148 9.76881L7.8719 7.97521L11.8582 5.20426C12.0469 5.07289 12.0469 4.74488 11.8582 4.6135L7.8719 1.84256L5.29183 0.0489507C5.00585 -0.149781 4.7164 0.301654 4.94921 0.584062L8.31111 4.66873C8.42057 4.80178 8.42057 5.01599 8.31111 5.14861L8.31077 5.14903Z" fill="var(--fill-0, #EF4823)"/>
</g>
<defs>
<clipPath id="clip0_33479_188">
<rect width="12" height="9.81818" fill="white"/>
</clipPath>
</defs>
</svg>
