<svg preserveAspectRatio="none" width="100%" height="100%" overflow="visible" style="display: block;" viewBox="0 0 66 71" fill="none" xmlns="http://www.w3.org/2000/svg">
<g id="Layer_1" clip-path="url(#clip0_33479_258)">
<path id="Vector" d="M0 63.4454C0 63.4454 0.00976683 63.4893 0.0146503 63.5137C0.0146503 63.5333 0.0146503 63.5479 0.0244171 63.5674C0.0244171 63.5723 0.0341839 63.5772 0.0341839 63.587C0.0439508 63.6065 0.058601 63.626 0.0732513 63.6407C0.0830181 63.6553 0.0927849 63.6749 0.102552 63.6846L7.31048 70.8926C7.34466 70.9267 7.38373 70.9512 7.42768 70.9707C7.47163 70.9902 7.52046 71 7.5693 71H59.69C59.734 71 59.7779 70.9902 59.817 70.9756H59.8267C59.8414 70.9707 59.8512 70.9609 59.8609 70.9561C59.8805 70.9463 59.9 70.9414 59.9147 70.9268C59.9195 70.9268 59.9244 70.917 59.9293 70.9121C59.9342 70.9121 59.944 70.9072 59.9488 70.9023L65.0813 65.7747C65.0813 65.7747 65.1008 65.7454 65.1106 65.7308C65.1253 65.7113 65.1399 65.6917 65.1497 65.6722C65.1594 65.6527 65.1643 65.6282 65.1692 65.6038C65.1741 65.5794 65.179 65.5599 65.1839 65.5355C65.1839 65.511 65.1839 65.4915 65.179 65.4671C65.179 65.4427 65.1741 65.4231 65.1643 65.3987C65.1546 65.3743 65.1448 65.3548 65.1301 65.3352C65.1204 65.3206 65.1155 65.3011 65.1057 65.2913L41.4358 35.5171L65.1057 5.73801C65.1057 5.73801 65.1204 5.70871 65.1301 5.69406C65.1448 5.67453 65.1546 5.65011 65.1643 5.63058C65.1741 5.60616 65.1741 5.58663 65.179 5.56221C65.179 5.53779 65.1839 5.51826 65.1839 5.49384C65.1839 5.46943 65.1741 5.44989 65.1692 5.42548C65.1643 5.40106 65.1594 5.38152 65.1497 5.36199C65.1399 5.33757 65.1253 5.32292 65.1106 5.29851C65.1008 5.28386 65.096 5.26921 65.0813 5.25456L59.9537 0.107435C59.9537 0.107435 59.9391 0.102552 59.9342 0.0976682C59.9293 0.0976682 59.9244 0.0879014 59.9195 0.0830179C59.9049 0.0732511 59.8902 0.0683677 59.8756 0.0634843C59.8609 0.0537174 59.8463 0.0390672 59.8316 0.0341838C59.8219 0.0341838 59.817 0.0341838 59.8072 0.0293004C59.7828 0.0195335 59.7633 0.0195335 59.7388 0.0146501C59.7242 0.0146501 59.7095 0.00488327 59.69 0.00488327H7.57418C7.52535 0.00488327 7.4814 0.0146501 7.43256 0.0341838C7.38861 0.0537174 7.34954 0.0781345 7.31536 0.112318L0.107435 7.31536C0.107435 7.31536 0.0879015 7.34466 0.0781347 7.35931C0.0634844 7.37884 0.0488342 7.39349 0.0390673 7.41303C0.0390673 7.41791 0.0293005 7.42279 0.0293005 7.43256C0.0244171 7.44721 0.0244171 7.46674 0.0195337 7.48139C0.0146503 7.50581 0.00976683 7.52535 0.00488342 7.54976C0.00488342 7.57418 0.00488342 7.59371 0.00976683 7.61813C0.00976683 7.64255 0.0146503 7.66208 0.0244171 7.6865C0.0244171 7.69626 0.0244171 7.70115 0.0293005 7.71091C0.0341839 7.73045 0.0488342 7.74022 0.058601 7.75975C0.0683678 7.7744 0.0683678 7.78905 0.0781347 7.79882L22.0975 35.4976L0.0781347 63.1963C0.0781347 63.1963 0.0634844 63.2256 0.058601 63.2354C0.0488342 63.25 0.0341839 63.2647 0.0293005 63.2842C0.0293005 63.294 0.0293005 63.2989 0.0244171 63.3086C0.0146503 63.333 0.0146503 63.3526 0.00976683 63.377C0.00976683 63.3916 0 63.4063 0 63.4258C0 63.4258 0 63.4405 0 63.4454ZM45.0495 7.8037C45.0495 7.8037 45.0642 7.7744 45.0691 7.76463C45.0837 7.7451 45.0935 7.72068 45.1032 7.69626C45.113 7.67185 45.113 7.64743 45.1179 7.62301C45.1179 7.60836 45.1277 7.59371 45.1277 7.57906C45.1277 7.57418 45.1277 7.56441 45.1277 7.55953C45.1277 7.53511 45.1179 7.51069 45.113 7.48628C45.1081 7.46674 45.1032 7.44233 45.0935 7.42279C45.0837 7.40326 45.0691 7.38373 45.0544 7.36908C45.0398 7.34954 45.0251 7.33001 45.0056 7.31047C45.0007 7.31047 44.9958 7.30071 44.9909 7.29582C44.9763 7.28606 44.9616 7.28117 44.947 7.27629C44.9274 7.26164 44.903 7.25187 44.8786 7.24211C44.8542 7.23234 44.8298 7.23234 44.8054 7.22746C44.7907 7.22746 44.7761 7.21769 44.7565 7.21769H1.25015L7.72557 0.732512H58.938L15.0165 55.9933C15.0165 55.9933 15.0019 56.0226 14.997 56.0323C14.9823 56.0519 14.9726 56.0763 14.9628 56.1007C14.953 56.1251 14.953 56.1495 14.9481 56.1739C14.9481 56.1886 14.9384 56.2032 14.9384 56.2179C14.9384 56.2228 14.9384 56.2325 14.9384 56.2374C14.9384 56.2618 14.9481 56.2863 14.953 56.3107C14.9579 56.3302 14.9628 56.3546 14.9726 56.3742C14.9823 56.3937 14.997 56.4132 15.0116 56.4279C15.0263 56.4474 15.0409 56.4669 15.0605 56.4865C15.0653 56.4865 15.0702 56.4962 15.0751 56.5011C15.0898 56.5158 15.1093 56.5207 15.1288 56.5304C15.1435 56.5402 15.1581 56.55 15.1728 56.5548C15.2167 56.5695 15.2607 56.5793 15.3046 56.5793H38.8622L44.0094 63.0547H1.12319L45.0495 7.8037ZM31.7715 23.3281L25.2668 15.1435H38.2762L31.7715 23.3281ZM24.3341 15.1484L31.3076 23.919L27.1713 29.1198L16.0664 15.1435H24.339L24.3341 15.1484ZM24.3341 55.8516H16.0616L59.7291 0.913199L64.339 5.52314L24.3341 55.8516ZM7.72557 70.2675L1.25015 63.7921H44.7614C44.8054 63.7921 44.8493 63.7823 44.8933 63.7677C44.9079 63.7628 44.9226 63.753 44.9372 63.7432C44.9567 63.7335 44.9763 63.7286 44.9909 63.7139C44.9958 63.7139 45.0007 63.7042 45.0056 63.6993C45.0251 63.6846 45.0398 63.6602 45.0544 63.6407C45.0691 63.6212 45.0837 63.6065 45.0935 63.587C45.1032 63.5674 45.1081 63.5479 45.113 63.5235C45.1179 63.4991 45.1277 63.4747 45.1277 63.4502C45.1277 63.4454 45.1277 63.4356 45.1277 63.4307C45.1277 63.4161 45.1228 63.4014 45.1179 63.3868C45.1179 63.3623 45.113 63.3379 45.1032 63.3135C45.0935 63.2891 45.0837 63.2695 45.0691 63.2451C45.0593 63.2305 45.0593 63.2158 45.0495 63.2061L32.2403 47.0908L36.3766 41.8899L58.938 70.2773H7.72557V70.2675ZM31.7715 47.6719L38.2762 55.8565H25.2668L31.7715 47.6719ZM64.339 65.4769L59.7291 70.0819L36.8454 41.2893L40.9816 36.0885L64.339 65.4769ZM1.12319 7.94044H44.0045L38.8574 14.4158H15.2997C15.2997 14.4158 15.2704 14.4207 15.2558 14.4256C15.2314 14.4256 15.207 14.4305 15.1825 14.4403C15.1581 14.45 15.1386 14.4598 15.1142 14.4744C15.0995 14.4842 15.0849 14.4842 15.0751 14.494C15.0702 14.494 15.0653 14.5037 15.0605 14.5086C15.0409 14.5233 15.0263 14.5477 15.0116 14.5672C14.997 14.5868 14.9823 14.6014 14.9726 14.621C14.9628 14.6405 14.9579 14.66 14.953 14.6844C14.9481 14.7089 14.9384 14.7333 14.9384 14.7577C14.9384 14.7626 14.9384 14.7723 14.9384 14.7772C14.9384 14.7919 14.9433 14.8065 14.9481 14.8212C14.9481 14.8456 14.953 14.87 14.9628 14.8944C14.9726 14.9188 14.9823 14.9384 14.997 14.9628C15.0067 14.9774 15.0067 14.9921 15.0165 15.0019L26.7025 29.7009L22.5663 34.9018L1.12319 7.94044Z" fill="var(--fill-0, #666666)"/>
</g>
<defs>
<clipPath id="clip0_33479_258">
<rect width="65.1887" height="71" fill="white"/>
</clipPath>
</defs>
</svg>
